<?xml version="1.0" standalone="no"?>
<!DOCTYPE svg PUBLIC "-//W3C//DTD SVG 20010904//EN"
 "http://www.w3.org/TR/2001/REC-SVG-20010904/DTD/svg10.dtd">
<svg version="1.0" xmlns="http://www.w3.org/2000/svg"
 width="287.000000pt" height="287.000000pt" viewBox="0 0 287.000000 287.000000"
 preserveAspectRatio="xMidYMid meet">
<metadata>
Created by potrace 1.11, written by Peter Selinger 2001-2013
</metadata>
<g transform="translate(0.000000,287.000000) scale(0.100000,-0.100000)"
fill="#000000" stroke="none">
<path d="M1409 2846 c-13 -7 -71 -40 -129 -73 -58 -33 -122 -70 -143 -82 -45
-25 -56 -32 -552 -316 -209 -119 -384 -221 -389 -225 -8 -8 -13 -1428 -5
-1434 4 -3 758 -434 826 -472 23 -13 108 -62 188 -109 81 -47 149 -85 152 -85
3 0 16 -9 30 -20 14 -11 33 -20 41 -20 8 0 58 25 109 55 52 30 97 55 100 55 4
0 14 6 22 14 9 7 41 27 71 43 30 16 177 100 325 185 149 85 290 166 315 180
25 14 104 59 175 101 l130 75 1 711 c1 592 -1 713 -13 722 -22 19 -844 489
-854 489 -5 0 -9 5 -9 10 0 6 -4 10 -9 10 -10 0 -259 140 -301 169 -39 27 -56
30 -81 17z"/>
</g>
</svg>
